<!-- Created with Inkscape (http://www.inkscape.org/) -->
<svg xmlns:rdf="http://www.w3.org/1999/02/22-rdf-syntax-ns#" xmlns="http://www.w3.org/2000/svg" height="600" width="880" version="1.1" xmlns:cc="http://creativecommons.org/ns#" xmlns:xlink="http://www.w3.org/1999/xlink" xmlns:dc="http://purl.org/dc/elements/1.1/">
 <defs>
  <linearGradient id="linearGradient3814" y2="534.5" gradientUnits="userSpaceOnUse" x2="416.9" y1="469.4" x1="369.2">
   <stop stop-color="#ada99f" offset="0"/>
   <stop stop-color="#ada99f" stop-opacity="0" offset="1"/>
  </linearGradient>
  <linearGradient id="linearGradient3836" y2="534.5" gradientUnits="userSpaceOnUse" x2="416.9" y1="469.4" x1="369.2">
   <stop stop-color="#7b7b7b" offset="0"/>
   <stop stop-color="#7b7b7b" stop-opacity="0" offset="1"/>
  </linearGradient>
  <linearGradient id="linearGradient5296" gradientUnits="userSpaceOnUse" x2="440" y1="360" x1="440">
   <stop stop-color="#b1d4eb" offset="0"/>
   <stop stop-color="#f3f8fd" offset="1"/>
  </linearGradient>
 </defs>
 <metadata>
  <rdf:RDF>
   <cc:Work rdf:about="">
    <dc:format>image/svg+xml</dc:format>
    <dc:type rdf:resource="http://purl.org/dc/dcmitype/StillImage"/>
    <dc:title/>
   </cc:Work>
  </rdf:RDF>
 </metadata>
 <g transform="translate(-0.28572163,-64.219315)">
  <rect transform="translate(0.28572163,64.219315)" height="360" width="880" y="0" x="0" fill="url(#linearGradient5296)"/>
  <path stroke-linejoin="miter" d="m544.5,180.8c-10.43-5.518-8.395-17.17-14.65-24.24-6.668-7.547-21.37-8.899-23.74-18.69-1.044-4.32,4.504-9.047,4.546-12.12,0.1566-11.61-34.14-6.951-44.95-30.3-4.462-9.64,8.671-18.99,8.586-24.75-0.1877-12.74-31.04-20.02-34.35-36.37-2.295-11.34,9.84-14.08,8.525-22.04-1.923-11.64-24.48-17.57-19.81-28.41,48.05-111.5,317.5-119.3,361.3-6.117,5.967,15.42-34.5,33.94-39.76,44.4-4.498,8.951,7.691,23.93,2.5,34.11-3.858,7.564-14.54-2.965-30.36,13.57-13.01,13.6,1.173,21.37-1.25,30.18-4.445,16.15-34.15,21.96-33.92,27.75,0.1756,4.351,16.32,22.14,11.05,37.22-3.555,10.18-27.85,16.45-27.85,16.45-33.76,19.95-110.5,7.52-125.9-0.6419z" transform="translate(0.28572163,64.219315)" stroke="#b28e6a" stroke-linecap="butt" stroke-miterlimit="4" stroke-dasharray="none" stroke-width="4" fill="#d0a378"/>
  <path stroke-linejoin="miter" d="m636.4,170c-3.929,0-61.77,2.391-77.86-18.93-5.454-7.228,4.907-18.94,1.071-27.14-3.883-8.304-18.21-8.345-21.79-16.79-2.477-5.847,5.305-11.28,2.143-18.93-5.153-12.46-29.51-3.796-31.79-25-1.072-9.968,13.83-14.08,13.21-22.86-1.343-19.29-44.1-28.29-35.71-45.71,35.06-72.84,204.7-73.94,242.5-2.5,7.704,14.55-18.81,22.53-23.04,35.71-2.115,6.59,3.416,14.44-0.1786,20.36-4.634,7.624-18.72,6.022-22.86,13.93-6.475,12.38,8.705,23.11,3.571,32.86-4.219,8.012-19.71,4.844-23.93,12.86-3.569,6.783,5.727,15.91,2.5,22.86-2.961,6.379-13.14,6.269-17.5,11.79-6.076,7.683,16.35,27.5-10.36,27.5z" transform="translate(0.28572163,64.219315)" stroke="#c18d5b" stroke-linecap="butt" stroke-miterlimit="4" stroke-dasharray="none" stroke-width="4" fill="#dfa369"/>
  <path stroke-linejoin="miter" d="m610.2,161.8c-6.114-2.536-12.16-7.155-14.82-13.21-1.701-3.869,1.769-8.763,0.1786-12.68-3.284-8.082-18.33-1.501-17.5-18.39,0.2239-4.568,8.681-5.288,9.286-9.821,0.8675-6.502-9.927-9.023-10.54-16.61-0.4638-5.774,8.065-10.47,6.607-16.07-2.527-9.717-19.54-9.553-23.57-18.75-2.61-5.959,4.09-13.53,1.429-19.46-3.561-7.941-19.62-9.426-20.89-18.04-1.539-10.42-3.282-19.5,2.857-25,31.93-28.59,100.8-32.43,128.6,0.1786,2.463,2.889-1.907,7.455-1.786,11.25,0.1559,4.878,3.708,9.663,2.143,14.29-2.738,8.085-16.26,8.212-18.57,16.43-1.259,4.476,5.677,8.726,4.464,13.21-2.101,7.779-15.15,8.442-18.21,15.89-3.135,7.616,4.201,16.77,1.786,24.64-1.889,6.159-13.14,6.777-13.39,15.54-0.138,4.72,8.917,7.971,9.286,12.68,0.3141,4.008-7.832,9.294-8.929,15.54-1.732,9.852,10.99,22.35,4.215,29.71-5.113,5.554-15.64,1.573-22.61-1.32z" transform="translate(0.28572163,64.219315)" stroke="#db8c3f" stroke-linecap="butt" stroke-miterlimit="4" stroke-dasharray="none" stroke-width="4" fill="#f0a052"/>
  <rect height="253" width="880" y="411.2" x="0.2857" fill="#7bbdde"/>
  <path d="m608.2,453.6c101.1,6.11,67.54-306.2-0.1349-302.9-68.71,3.363-51.35,299.8,0.1349,302.9z" transform="translate(0.28572163,64.219315)" fill="#f48840"/>
  <path stroke-linejoin="miter" d="m2.286,412.2,876,0" stroke="#3ea1d4" stroke-linecap="square" stroke-miterlimit="4" stroke-dasharray="none" stroke-width="3.99999976" fill="none"/>
  <path stroke-linejoin="miter" d="M-10,581.4c282.3,17.9,593,0.4,895.7,7.2" transform="translate(0.28572163,64.219315)" stroke="#f4c840" stroke-linecap="butt" stroke-miterlimit="4" stroke-dasharray="none" stroke-width="50" fill="none"/>
  <path stroke-linejoin="round" d="m889.9,552.5c-75.09,8.897-145.1-14.46-222.2-9.091l-15.15-7.071c-135.4,18.6-119.8,27.7-353.6,4.1-60.8-6.1-105.3,41.5-327.9-13.2" fill-opacity="0" transform="translate(0.28572163,64.219315)" stroke="#f4b240" stroke-linecap="butt" stroke-miterlimit="4" stroke-dasharray="none" stroke-width="80"/>
  <path stroke-linejoin="miter" d="m892,514.1c-184.7,10.27-185-40.4-266.7-26.26-31.63,5.471-55.99,22.56-87.88,26.26-83.11,9.648-168-24.27-251.5-28.28-67.9-3.263-135.1,22.34-203,19.19-38.07-1.7-115.2-23.2-115.2-23.2" transform="translate(0.28572163,64.219315)" stroke="#f4a640" stroke-linecap="butt" stroke-miterlimit="4" stroke-dasharray="none" stroke-width="70" fill="none"/>
  <path stroke-linejoin="round" d="m896,470.7c-255.2,20.37-222.4-35.26-281.1-29.36-39.87,4.008-56.92,42.48-110.8,43.5-82.43,1.562-180-48.33-284.9-45.46-61.27,1.679-127.1,13.24-187.9,5.051-11.84-1.596-81.86-13.07-79.84-29.37,2.638-21.31,268.7,22.29,268.7,22.29" transform="translate(0.28572163,64.219315)" stroke="#f49940" stroke-linecap="butt" stroke-miterlimit="4" stroke-dasharray="none" stroke-width="50" fill="none"/>
  <path stroke-linejoin="miter" d="M589.9,155.6c-2,0-3.8,0.6-5,2.2-53.7,71.7-50,311.3-16.5,300.5,33.7-10.9,49.5-56.9,51.3-75.5,2.1-21.4-13.2-41.3-11.9-62.9,0.7-10,7.2-14.2,7.8-21.3,1.1-14.3-6.8-31.7-7.5-50.9-1-26.8,6.9-65-1-80.5-2.7-5.4-11.1-11.5-17.2-11.6zm43.8,7.3c-5.3,0-12.7,4.2-12.5,8.5,1.7,25.6-2.4,34.4-3,51.6-0.6,17.9-6,34-0.2,51,2.1,6.1,10.5,8.9,10.3,15.4-0.1,4.1-12.6,23.8-13.9,37.4-1.3,14.3,12.2,33.2,14.4,48,2.7,18.3-4.7,32.2,6.1,46.4,5.3,7,13.4,15.3,21.6,21.7,8.8,6.9,36.1-242.1-19.6-279.3-0.9-0.5-2-0.7-3.2-0.7z" transform="translate(0.28572163,64.219315)" stroke="#9e8262" stroke-linecap="butt" stroke-miterlimit="4" stroke-dasharray="none" stroke-width="4" fill="#c8a97a"/>
  <path stroke-linejoin="miter" d="m245.4,397.6c-6.957-9.813-5.943-24.59,3.092-32.54,22.95-20.18,139.5-16.38,176.6-21.16,15.99-2.064,46.52-10.73,86.99-79.6,11.25-19.14,30.17-63.69,46.61-86.55,8.275-11.51,22.15-31.92,30.3-30.05,17.12,3.92,9.598,90.5,10.01,135.9,1.512,166.8-20.13,193.8-112.9,191.1-99.34-2.918-219-46.43-240.7-77.05z" transform="translate(0.28572163,64.219315)" stroke="#7b7b7b" stroke-linecap="butt" stroke-miterlimit="4" stroke-dasharray="none" stroke-width="4" fill="#ada99f"/>
  <path stroke-linejoin="miter" d="m987.4,461.8c6.957-9.813,5.943-24.59-3.092-32.54-22.95-20.18-139.5-16.38-176.6-21.16-15.99-2.064-46.52-10.73-86.99-79.6-11.25-19.14-30.17-63.69-46.61-86.55-8.275-11.51-22.15-31.92-30.3-30.05-17.12,3.92-9.598,90.5-10.01,135.9-1.512,166.8,20.13,193.8,112.9,191.1,99.34-2.918,219-46.43,240.7-77.05z" stroke="#7b7b7b" stroke-linecap="butt" stroke-miterlimit="4" stroke-dasharray="none" stroke-width="4" fill="#ada99f"/>
  <path stroke-linejoin="miter" d="M430.1,547.4c-48.6-31.2-99.1-66.3-132.4-86.9-49.4-30.5-87.1-36.3-124.7-41.7-43-6.3-108.4-5.7-183.1-0.5v-57.16c26.64-1.412,62.31-2.047,85.05-1.969,219.8,0.7576,301.2,81.7,401.8,170.4" transform="translate(0.28572163,64.219315)" stroke="url(#linearGradient3836)" stroke-linecap="square" stroke-miterlimit="4" stroke-dasharray="none" stroke-width="4" fill="url(#linearGradient3814)"/>
  <path style="baseline-shift:baseline;block-progression:tb;color:#000000;direction:ltr;text-indent:0;text-align:start;enable-background:accumulate;text-transform:none;" fill="#000" d="m77.19,445.8c-23.45-0.1101-49.79,0.2038-63.53,2.375l1.562,9.875c11.83-1.869,38.61-2.359,61.91-2.25,23.3,0.1094,43.44,0.7188,43.44,0.7188l0.3125-10s-20.24-0.6086-43.69-0.7188z"/>
  <path stroke-linejoin="round" d="m101.8,438.8,32.4,13.05-33.13,11.05c5.451-6.953,5.717-16.69,0.7342-24.1z" fill-rule="evenodd" stroke-width="0.625"/>
  <path style="baseline-shift:baseline;block-progression:tb;color:#000000;direction:ltr;text-indent:0;text-align:start;enable-background:accumulate;text-transform:none;" fill="#000" d="M233.9,404.7l-2.1,9.7c31.8,7,64.9,26.1,82.9,37.5-1.9,1.4-4,2.6-6.3,3.3l19.5,5.6,0.2,0.2v-0.1l13.9,4-8-12-11.3-17.1c0,2.9-0.6,5.6-1.8,8.2-18.1-11.8-52.6-31.8-87-39.3z" transform="translate(0.28572163,64.219315)"/>
  <path style="baseline-shift:baseline;block-progression:tb;color:#000000;direction:ltr;text-indent:0;text-align:start;enable-background:accumulate;text-transform:none;" fill="#000" d="M627.5,490.7l-12.2,32.7c2.1-1.5,4.5-2.6,6.9-3.2-0.5,9.9-1.8,19.2-5.7,26.3-6,10.9-17.6,18.5-45.4,17.9l-0.2,10c29.9,0.7,46.5-8.8,54.3-23.1,5.2-9.5,6.7-20.4,7.1-31.1,2.6,0.6,5,1.7,7.1,3.3l-6.9-19.1v-0.2h-0.1l-4.9-13.5z" transform="translate(0.28572163,64.219315)"/>
  <path d="m318,404.6a23.23,25,0,0,1,42.02,0.3008" fill-opacity="0" transform="matrix(0.8660254,0.5,-0.5,0.8660254,256.19559,-40.639471)" stroke-dashoffset="0" stroke="#800000" stroke-linecap="round" stroke-miterlimit="4" stroke-dasharray="none" stroke-width="8"/>
  <path d="m301.1,392.7a41.96,52.38,0,0,1,75.88,0.6302" fill-opacity="0" transform="matrix(0.8660254,0.5,-0.5,0.8660254,253.16531,-30.790484)" stroke-dashoffset="0" stroke="#8a4a40" stroke-linecap="round" stroke-miterlimit="4" stroke-dasharray="none" stroke-width="8"/>
  <path d="m280.8,377.4a64.44,87.69,0,0,1,116.5,1.055" fill-opacity="0" transform="matrix(0.8660254,0.5,-0.5,0.8660254,244.32648,-16.39581)" stroke-dashoffset="0" stroke="#896f63" stroke-linecap="round" stroke-miterlimit="4" stroke-dasharray="none" stroke-width="12.00000004"/>
  <path d="m350.9,423.9a8.776,10.92,0,1,1,-17.55,0,8.776,10.92,0,1,1,17.55,0z" transform="matrix(1.2534612,0,0,1.0071163,-85.215817,60.473227)" stroke-dashoffset="0" stroke="#800000" stroke-linecap="round" stroke-miterlimit="4" stroke-dasharray="none" stroke-width="1.78006040999999990" fill="#c03f00"/>
  <path stroke-linejoin="miter" d="m254.1,387.9s2.46-8.125,5.808-7.955c6.319,0.3217,4.639,12.8,10.61,14.9,4.343,1.531,7.76-5.109,13.13-2.399,8.105,4.088,3.056,11.83,8.081,14.65,8.346,4.675,10.34-1.883,15.91-1.263,5.001,0.5566,6.945,6.566,6.945,6.566" transform="translate(0.28572163,64.219315)" stroke="#800606" stroke-linecap="round" stroke-miterlimit="4" stroke-dasharray="none" stroke-width="4" fill="none"/>
  <path stroke-linejoin="miter" d="m370.9,447.7s4.651-3.294,6.819-2.273c4.653,2.192,1.233,11.61,5.556,14.39,4.323,2.787,9.062-0.9765,14.21-0.947,3.65,0.0209,6.882,8.902,6.882,8.902" transform="translate(0.28572163,64.219315)" stroke="#800606" stroke-linecap="round" stroke-miterlimit="4" stroke-dasharray="none" stroke-width="4" fill="none"/>
  <path stroke-linejoin="miter" d="m603.4,439.1c0.6304,1.611,5.371,1.18,6.692,1.01,1.861-4.321-5.975-12.1-6.692-1.01z" transform="translate(0.28572163,64.219315)" stroke="#9e8262" stroke-linecap="butt" stroke-miterlimit="4" stroke-dasharray="none" stroke-width="4" fill="#c8a97a"/>
  <path stroke-linejoin="miter" d="m527,574.1c0.6304,1.611,5.371,1.18,6.692,1.01,3.376-7.351-6.227-9.702-6.692-1.01z" stroke="#9e8262" stroke-linecap="butt" stroke-miterlimit="4" stroke-dasharray="none" stroke-width="4" fill="#c8a97a"/>
  <path stroke-linejoin="miter" d="m529.6,614.8c0.6304,1.611,2.593,5.095,3.914,4.924,12.34-2.426-3.071-15.01-3.914-4.924z" stroke="#9e8262" stroke-linecap="butt" stroke-miterlimit="4" stroke-dasharray="none" stroke-width="4" fill="#c8a97a"/>
  <path stroke-linejoin="miter" d="M494.5,521.5z" transform="translate(0.28572163,64.219315)" stroke="#9e8262" stroke-linecap="butt" stroke-miterlimit="4" stroke-dasharray="none" stroke-width="4" fill="#c8a97a"/>
  <path stroke-linejoin="miter" d="m494.6,521.7c-2.383-5.614,4.726-14.88,8.334-13.13,5.68,2.754-3.764,11.75-8.334,13.13z" transform="translate(0.28572163,64.219315)" stroke="#9e8262" stroke-linecap="butt" stroke-miterlimit="4" stroke-dasharray="none" stroke-width="4" fill="#c8a97a"/>
  <path stroke-linejoin="miter" d="m506,540.7s-2.358-11.95,11.49-17.93c10.25-4.427,21.58-3.486,32.45-6.061,12.08-2.862,12.04-8.502,19.95-13.13,0,0,5.704,13.47-10.99,21.84-13.61,6.832-37.67,4.251-52.91,15.28z" transform="translate(0.28572163,64.219315)" stroke="#9e8262" stroke-linecap="butt" stroke-miterlimit="4" stroke-dasharray="none" stroke-width="4" fill="#c8a97a"/>
  <path stroke-linejoin="miter" d="m589.6,498.6c9.382,1.135,22.38-8.261,24.02-26.16,0.3798-4.141-1.89-12.37-4.107-18.12-9.435,2.976-3.723,13.86-8.661,19.46-8.382,9.506-11.35,15.43-11.25,24.82z" transform="translate(0.28572163,64.219315)" stroke="#9e8262" stroke-linecap="butt" stroke-miterlimit="4" stroke-dasharray="none" stroke-width="4" fill="#c8a97a"/>
  <path stroke-linejoin="miter" d="m0,180c2.139,0.9893,1.59,5.06,5,5,5.565-0.0977,9.246-15.33,23.75-14.82,11.77,0.4144,12.02,11.13,19.29,18.75,2.697,2.825,8.135-2.146,11.61-0.3571,2.627,1.354,5.9,9.272,3.036,10-13.76,3.498-19.53,10.11-30.71,11.96-8.01,1.329-34.1,1.06-41.79-3.393-9.619-5.573-10.57-19.72-3.393-28.21,2.84-3.4,9.189-0.9,13.2,1z" transform="translate(0.28572163,64.219315)" stroke="#d9dada" stroke-linecap="butt" stroke-miterlimit="4" stroke-dasharray="none" stroke-width="4" fill="#ececec"/>
  <path stroke-linejoin="miter" d="m185,192.1c1.268-11.45,42.5-4.286,42.5-4.286-0.545-30.84,33.81-24.17,44.29-11.07,16.7-17.78,25.47-18.58,33.21-18.57,16.89,0.0255,21.76,16.5,32.14,15,25.34-3.655,46.58,7.15,48.57,25.36,0.8308,7.588-24.34,3.498-36.43,5.714-14.24,2.611-10.54,8.866-42.5,8.929-20.34,0.0399-33.89-6.834-60.71-6.071-31.32,0.8903-61.77-8.729-61.07-15z" transform="translate(0.28572163,64.219315)" stroke="#d9dada" stroke-linecap="butt" stroke-miterlimit="4" stroke-dasharray="none" stroke-width="4" fill="#ececec"/>
  <path stroke-linejoin="miter" d="m898.9,216.6c-1.786,0.1786-88.79-1.824-93.75-10-2.145-3.537,16.22-27.38,21.96-26.96,8.134,0.587,15.78,13.46,20.36,13.57,5.82,0.1451,9.021-10.68,13.93-10.54,3.747,0.108,4.836,8.183,7.679,8.214,5.618,0.061,9.865-13.48,16.61-11.43,12.98,3.954,44.49,34.02,13.21,37.14z" transform="translate(0.28572163,64.219315)" stroke="#d9dada" stroke-linecap="butt" stroke-miterlimit="4" stroke-dasharray="none" stroke-width="4" fill="#ececec"/>
 </g>
</svg>
